<svg width="24" height="24" xmlns="http://www.w3.org/2000/svg" fill-rule="evenodd" clip-rule="evenodd"><path d="M6.72 20.492c1.532.956 3.342 1.508 5.28 1.508 1.934 0 3.741-.55 5.272-1.503l1.24 1.582c-1.876 1.215-4.112 1.921-6.512 1.921-2.403 0-4.642-.708-6.52-1.926l1.24-1.582zm17.28-1.492h-6c0-1.105.895-2 2-2h2c.53 0 1.039.211 1.414.586s.586.883.586 1.414zm-18 0h-6c0-1.105.895-2 2-2h2c.53 0 1.039.211 1.414.586s.586.883.586 1.414zm6-11c-3.037 0-5.5 2.462-5.5 5.5 0 3.037 2.463 5.5 5.5 5.5s5.5-2.463 5.5-5.5c0-3.038-2.463-5.5-5.5-5.5zm.306 1.833h-.612v.652c-1.188.164-1.823.909-1.823 1.742 0 1.49 1.74 1.717 2.309 1.982.776.347.632 1.069-.07 1.229-.609.137-1.387-.103-1.971-.33l-.278 1.005c.546.282 1.201.433 1.833.444v.61h.612v-.644c1.012-.142 1.834-.7 1.833-1.75 0-1.311-1.364-1.676-2.41-2.167-.635-.33-.555-1.118.355-1.171.505-.031 1.024.119 1.493.284l.221-1.007c-.554-.168-1.05-.245-1.492-.257v-.622zm8.694 2.167c1.242 0 2.25 1.008 2.25 2.25s-1.008 2.25-2.25 2.25-2.25-1.008-2.25-2.25 1.008-2.25 2.25-2.25zm-18 0c1.242 0 2.25 1.008 2.25 2.25s-1.008 2.25-2.25 2.25-2.25-1.008-2.25-2.25 1.008-2.25 2.25-2.25zm5-11.316v2.149c-2.938 1.285-5.141 3.942-5.798 7.158l-2.034-.003c.732-4.328 3.785-7.872 7.832-9.304zm8 0c4.047 1.432 7.1 4.976 7.832 9.304l-2.034.003c-.657-3.216-2.86-5.873-5.798-7.158v-2.149zm-1 6.316h-6c0-1.105.895-2 2-2h2c.53 0 1.039.211 1.414.586s.586.883.586 1.414zm-3-7c1.242 0 2.25 1.008 2.25 2.25s-1.008 2.25-2.25 2.25-2.25-1.008-2.25-2.25 1.008-2.25 2.25-2.25z"/></svg>